:SAMPLES-PER-SECOND 30
:FRAME-RANGE 1-2775
:FULLY-SPECIFIED
:DEGREES
2168
root  11.1699 39.3479 -40.2867 3.53497 45.4937 2.15994
RightUpLeg  -25.2593 2.3006 0.175552
RightLeg  25.8057 -10.0586 -5.46495
RightFoot  -4.6752 -0.487962 7.81879
RightToes  1.218e-010 1.26228e-014 -6.01869e-014
Spine  -4.35017 -3.03759 -8.42586
Spine1  9.10551 -2.51624 -1.22536
HEad  11.9568 -43.2835 -3.28065
LeftShoulder1  1.71546 -2.59302 -23.0636
LeftArm  -0.334143 -0.660292 -49.3873
LeftForeArm  35.1198 3.29356 -13.2171
LeftHand  -0.024504 5.42864 3.60144
RightShoulder  1.16209 0.314215 25.9844
RightArm  -14.638 2.7961 59.3004
RightForeArm  67.3166 -4.69532 9.21217
RightHand  0.238587 -6.87065 -19.627
LeftUpLeg  -3.20137 2.78502 -3.90153
LeftLeg  17.3488 -0.836606 0.501178
LeftFoot  -15.7601 0.16172 1.73947
LeftToes  5.08156e-010 -6.90346e-011 -6.33378e-011
2169
root  12.1493 39.26 -39.554 3.46902 45.2637 2.15834
RightUpLeg  -24.1322 1.825 0.99531
RightLeg  14.7501 -9.89542 -3.14971
RightFoot  -4.33843 -0.562961 8.70011
RightToes  1.218e-010 1.26228e-014 -6.01869e-014
Spine  -5.10587 -3.23061 -8.01107
Spine1  9.36264 -2.59175 -1.20085
HEad  12.0514 -43.5991 -3.49805
LeftShoulder1  1.73008 -2.65723 -22.992
LeftArm  -0.329899 -1.67665 -49.5881
LeftForeArm  34.9109 2.88053 -13.1565
LeftHand  -0.0287507 5.26587 3.44617
RightShoulder  1.16495 0.342117 25.8108
RightArm  -13.6377 2.99353 58.8022
RightForeArm  66.5954 -4.78828 9.72119
RightHand  0.245257 -6.93237 -19.3763
LeftUpLeg  -0.449317 3.21751 -3.97631
LeftLeg  16.1334 -0.838973 0.348652
LeftFoot  -17.0319 0.1948 1.86224
LeftToes  5.08156e-010 -6.90346e-011 -6.33378e-011
2170
root  13.162 39.1197 -38.7768 3.74359 45.1987 2.30579
RightUpLeg  -22.9148 1.83685 1.11493
RightLeg  4.42585 -11.9973 -0.496266
RightFoot  -4.11016 -0.575517 8.64784
RightToes  1.218e-010 1.26228e-014 -6.01869e-014
Spine  -6.01801 -3.53433 -7.82394
Spine1  9.40555 -2.91024 -0.740617
HEad  12.6087 -43.8909 -4.3333
LeftShoulder1  1.73166 -2.67659 -22.9207
LeftArm  -0.622065 -1.92494 -49.8104
LeftForeArm  34.6953 2.37277 -13.0115
LeftHand  -0.0312703 5.19807 3.54599
RightShoulder  1.10307 0.142316 25.8547
RightArm  -13.4749 2.66316 58.1276
RightForeArm  66.1911 -4.8683 9.82355
RightHand  0.236066 -6.89424 -19.1801
LeftUpLeg  2.01218 3.33964 -4.22855
LeftLeg  15.1601 -0.678413 0.304855
LeftFoot  -18.291 0.239235 2.13119
LeftToes  5.08156e-010 -6.90346e-011 -6.33378e-011
2171
root  14.1878 38.9055 -37.9596 4.32016 45.1003 2.81439
RightUpLeg  -22.393 3.05264 0.780724
RightLeg  -2.49048 -15.3413 1.33593
RightFoot  -5.18891 -0.569979 9.92295
RightToes  1.218e-010 1.26228e-014 -6.01869e-014
Spine  -6.89862 -3.86955 -7.85612
Spine1  9.41239 -3.25547 -0.343661
HEad  12.8893 -44.2858 -4.79165
LeftShoulder1  1.69995 -2.62222 -22.6351
LeftArm  -0.666722 -1.85117 -50.0959
LeftForeArm  34.3221 1.91063 -12.9532
LeftHand  -0.0341683 5.05149 3.50734
RightShoulder  1.05086 -0.0284833 25.9189
RightArm  -14.2416 1.92625 57.5463
RightForeArm  65.8914 -4.88788 9.50726
RightHand  0.243127 -6.93748 -19.1766
LeftUpLeg  4.19042 3.24804 -4.82933
LeftLeg  14.789 -0.359725 0.395335
LeftFoot  -19.6575 0.244829 1.74431
LeftToes  5.08156e-010 -6.90346e-011 -6.33378e-011
